<svg width="281.4" height="75" viewBox="0 0 281.4 75" xmlns="http://www.w3.org/2000/svg"><g id="svgGroup" stroke-linecap="round" fill-rule="evenodd" font-size="9pt" stroke="#000000" stroke-width="0" fill="#ffffff" style="stroke:#000000;stroke-width:0;fill:#ffffff"><path d="M 26 0 L 0 0 L 0 75 L 26 75 C 46.7 75 63.4 58.2 63.4 37.5 C 63.4 16.9 46.7 0 26 0 Z M 25.1 58.6 L 17.2 58.6 L 17.2 16.4 L 25.1 16.4 C 36.8 16.4 46.2 25.9 46.2 37.5 C 46.2 49.2 36.8 58.6 25.1 58.6 Z" id="0"/><path d="M 98.1 0 L 73.4 0 L 73.4 75 L 90.6 75 L 90.6 53.9 L 107.3 75 L 128.7 75 L 104.8 44.7 A 22.743 22.743 0 0 0 120.899 23.141 A 23.376 23.376 0 0 0 120.9 22.9 C 120.9 10.3 110.7 0 98.1 0 Z M 98.1 29.4 L 90.6 29.4 L 90.6 16.4 L 98.1 16.4 A 5.322 5.322 0 0 1 103.149 19.86 C 103.502 20.728 103.7 21.747 103.7 22.9 A 8.281 8.281 0 0 1 103.287 25.57 C 102.898 26.714 102.254 27.625 101.439 28.271 A 5.315 5.315 0 0 1 98.1 29.4 Z" id="1"/><path d="M 148.9 0 L 131.7 0 L 131.7 75 L 148.9 75 L 148.9 0 Z" id="2"/><path d="M 223.3 0 L 206.1 0 L 206.1 42.5 L 178.1 0 L 160.9 0 L 160.9 75 L 178.1 75 L 178.1 32.4 L 206.1 75 L 223.3 75 L 223.3 0 Z" id="3"/><path d="M 281.4 58.6 L 252.5 58.6 L 252.5 45.7 L 278.8 45.7 L 278.8 29.4 L 252.5 29.4 L 252.5 16.4 L 281.4 16.4 L 281.4 0 L 235.3 0 L 235.3 75 L 281.4 75 L 281.4 58.6 Z" id="4"/></g></svg>